<svg xmlns="http://www.w3.org/2000/svg" width="32" height="32" viewBox="0 0 32 32">
  <g fill="#fff" stroke="#000" stroke-width="1.7" stroke-linejoin="round" stroke-linecap="round">
    <polygon points="10.40,26.60 7.40,23.40 6.00,19.00 6.20,15.60 4.80,14.00 5.20,12.20 7.20,11.80 9.20,13.00 9.60,11.40 11.40,10.40 13.20,11.20 13.80,10.20 15.60,9.40 17.40,10.20 18.20,10.40 19.80,10.00 21.60,11.00 23.40,12.80 24.60,16.00 24.40,20.40 22.60,24.20 20.20,26.80" />
  </g>
  <g stroke="#000" stroke-width="1.3" stroke-linecap="round" fill="none">
    <line x1="13.30" y1="11.60" x2="13.30" y2="14.60" />
    <line x1="17.60" y1="10.80" x2="17.60" y2="14.00" />
    <line x1="21.20" y1="12.20" x2="21.20" y2="15.20" />
    <line x1="9.00" y1="15.60" x2="12.00" y2="15.00" />
  </g>
</svg>
